<svg width="32" height="22" viewBox="0 0 32 22" fill="none" xmlns="http://www.w3.org/2000/svg">
<path fill-rule="evenodd" clip-rule="evenodd" d="M5.29181 1.91535V12.8452C5.29181 12.9947 5.1706 13.1159 5.02106 13.1159H3.72432C3.57478 13.1159 3.45357 12.9947 3.45357 12.8452V1.91535C3.45357 1.7658 3.57478 1.64459 3.72432 1.64459H5.02097C5.17052 1.64459 5.29181 1.7658 5.29181 1.91535ZM25.5377 0.414795H24.241C24.0914 0.414795 23.9702 0.536003 23.9702 0.68555V6.76246H19.9673C19.9387 7.03737 19.8358 7.50497 19.4941 8.06841H23.9702V14.0749C23.9702 14.2245 24.0914 14.3457 24.241 14.3457H25.5376C25.6871 14.3457 25.8084 14.2245 25.8084 14.0749V0.68555C25.8084 0.536003 25.6872 0.414795 25.5377 0.414795ZM2.15151 3.0451H0.854861C0.705314 3.0451 0.584106 3.16631 0.584106 3.31586V11.4446C0.584106 11.5941 0.705314 11.7153 0.854861 11.7153H2.15142C2.30096 11.7153 2.42217 11.5941 2.42217 11.4446V3.31586C2.42226 3.1664 2.30096 3.0451 2.15151 3.0451ZM15.8506 7.73273C16.3521 8.01964 16.6008 7.93201 16.7665 7.8738H16.7667C16.8124 7.85764 16.8531 7.84329 16.8947 7.83815C17.1038 7.64113 18.1362 5.64314 18.1362 4.84757C18.1362 4.56201 18.036 4.34505 17.8382 4.20254C17.5782 4.01518 17.2024 3.99695 16.9654 4.07601C16.7467 4.14884 16.6522 4.5094 16.5093 5.05515C16.4189 5.39964 16.3171 5.78754 16.153 6.22526C15.8071 7.14745 15.8317 7.6025 15.8506 7.73273ZM17.5175 8.36991C17.7399 8.4617 18.0232 8.43507 18.3595 8.29094C18.7775 8.11179 19.0468 7.57849 19.1991 7.1627H19.1992C19.5052 6.32787 19.5397 5.46092 19.4832 5.34774C19.4 5.18141 19.1612 4.97762 18.9204 4.93863C18.7719 4.91453 18.6429 4.95262 18.5269 5.05469C18.4921 5.3546 18.2664 6.90693 17.2246 8.12514C17.2702 8.19527 17.3622 8.30592 17.5175 8.36991ZM15.5317 5.50079C15.6273 5.59636 15.711 5.77163 15.7704 5.95439C15.8156 5.79672 15.8662 5.61207 15.9165 5.41026C15.9387 5.32146 15.9642 5.22597 15.9906 5.12742C16.0958 4.73392 16.2915 4.0018 16.1296 3.92093C15.9738 3.84304 15.6649 3.70983 15.3449 3.69296C14.9672 3.67238 14.6997 3.81732 14.5306 4.13636V5.5673C14.845 5.47227 15.0903 5.42462 15.2644 5.42462C15.3914 5.42471 15.4808 5.44998 15.5317 5.50079ZM13.9859 5.84789V4.1063C13.9813 4.08897 13.9232 3.99069 13.7888 3.89385C13.7172 3.84213 13.5722 3.75549 13.4072 3.75549C13.3569 3.75549 13.3074 3.76353 13.2599 3.77941C13.1436 3.81813 12.898 3.98933 12.7145 4.385C12.5732 4.6896 12.3889 5.32416 12.709 6.195C13.2592 6.12487 13.8688 5.97956 13.9859 5.84789ZM8.16118 6.76246V0.68555C8.16118 0.536003 8.03997 0.414795 7.89042 0.414795H6.59378C6.44423 0.414795 6.32302 0.536003 6.32302 0.68555V14.0749C6.32302 14.2245 6.44423 14.3457 6.59378 14.3457H7.89042C8.03997 14.3457 8.16118 14.2245 8.16118 14.0749V8.06841H11.8258C11.8009 7.44025 11.829 7.02302 11.8635 6.76246H8.16118ZM31.2766 3.0451H29.98C29.8304 3.0451 29.7092 3.16631 29.7092 3.31586V11.4446C29.7092 11.5941 29.8304 11.7153 29.98 11.7153H31.2766C31.4262 11.7153 31.5474 11.5941 31.5474 11.4446V3.31586C31.5474 3.1664 31.4261 3.0451 31.2766 3.0451ZM28.4072 1.64459H27.1105C26.961 1.64459 26.8398 1.7658 26.8398 1.91535V12.8452C26.8398 12.9947 26.961 13.1159 27.1105 13.1159H28.4072C28.5567 13.1159 28.6779 12.9947 28.6779 12.8452V1.91535C28.6779 1.7658 28.5566 1.64459 28.4072 1.64459ZM19.8603 8.58694H18.4202C17.668 9.17647 16.7654 8.43848 16.7562 8.4309C16.3203 8.10401 15.7102 8.10626 15.4396 8.12684C16.2324 8.46474 16.5107 9.27493 16.5135 9.2835L16.4503 9.3076C16.0374 8.34425 14.5526 8.29326 14.4163 8.29064C13.9608 8.58658 13.5028 8.28794 13.4981 8.28487L13.2878 8.14462L13.5275 8.22458C13.9747 8.37359 14.7255 7.88957 15.2716 7.34345C15.6674 6.94779 15.588 6.31513 15.3819 6.02912C15.3463 5.97975 15.2535 5.86991 15.1625 5.9154C14.8642 6.06459 12.7728 6.51187 12.4794 6.51187C12.4721 6.51187 12.4607 6.51359 12.4464 6.52821C12.2952 6.68407 12.3228 7.61664 12.3471 8.43947C12.3564 8.74885 12.3649 9.041 12.3649 9.29424C12.3649 10.2696 14.1424 11.2671 14.2673 11.3359L14.443 11.343L14.4393 11.3787L13.4062 21.4148H19.1112L17.927 11.4958L17.9511 11.4862C19.981 10.6742 19.8841 8.84019 19.8603 8.58694Z" fill="#FD0C89"/>
</svg>
