<svg width="42" height="35" viewBox="0 0 42 35" fill="none" xmlns="http://www.w3.org/2000/svg">
<path fill-rule="evenodd" clip-rule="evenodd" d="M21.4372 10.7003C20.0825 12.094 18.7613 13.4532 17.399 14.8547C18.6004 15.4857 19.8353 16.1626 21.0961 16.7871C22.0456 17.2574 22.4975 17.9506 22.4826 19.03C22.4437 21.8603 22.4636 24.6912 22.4508 27.5219C22.4471 28.3496 22.0077 28.9528 21.2651 29.2079C20.5569 29.451 19.7165 29.2639 19.3425 28.6403C19.1041 28.2426 18.9769 27.7224 18.9675 27.2536C18.9273 25.2441 18.9354 23.2332 18.9591 21.2232C18.9645 20.7673 18.8005 20.5292 18.4086 20.3177C16.4222 19.2453 14.4636 18.1212 12.471 17.0606C10.6565 16.0947 10.6341 13.9371 11.8536 12.7731C13.9897 10.7344 16.0405 8.60706 18.1357 6.52549C19.3575 5.31146 21.2255 5.52431 22.1627 6.97588C23.1968 8.57757 24.2333 10.1779 25.243 11.7948C25.4449 12.118 25.6627 12.2358 26.034 12.2309C27.4936 12.2115 28.9535 12.216 30.4133 12.2209C30.6572 12.2218 30.9087 12.2391 31.143 12.3007C31.7276 12.4546 32.0908 12.9317 32.0586 13.4551C32.0252 13.9987 31.5682 14.5137 30.9692 14.5218C28.8115 14.5508 26.6519 14.5694 24.496 14.5005C24.1363 14.489 23.7031 14.0867 23.4569 13.7527C22.8496 12.9289 22.3323 12.0392 21.7761 11.1778C21.678 11.0262 21.5673 10.8829 21.4372 10.7003ZM41.3138 26.4958C41.3225 21.8624 37.5745 18.1221 32.9267 18.1259C28.3046 18.1296 24.5686 21.844 24.5558 26.4484C24.5428 31.0753 28.2954 34.8235 32.9423 34.8251C37.5505 34.8268 41.3053 31.0909 41.3138 26.4958ZM32.9181 32.6107C29.5601 32.6012 26.7989 29.8424 26.7892 26.4869C26.7794 23.1104 29.5659 20.3297 32.9496 20.3396C36.3139 20.3493 39.0726 23.1047 39.0743 26.4572C39.0759 29.8453 36.2998 32.6201 32.9181 32.6107ZM25.1254 6.59573C26.8163 6.59362 28.1763 5.22186 28.1663 3.52866C28.1564 1.86272 26.8101 0.51623 25.1441 0.506284C23.4355 0.496103 22.0947 1.82773 22.0898 3.53989C22.0849 5.25228 23.4215 6.59784 25.1254 6.59573ZM17.0969 26.4958C17.1056 21.8624 13.3576 18.1221 8.70975 18.1259C4.08767 18.1296 0.351742 21.844 0.33887 26.4484C0.325882 31.0753 4.07854 34.8235 8.72555 34.8251C13.3336 34.8268 17.0884 31.0909 17.0969 26.4958ZM8.70122 32.6107C5.34325 32.6012 2.58205 29.8424 2.57234 26.4869C2.56251 23.1104 5.34898 20.3297 8.7327 20.3396C12.097 20.3493 14.8557 23.1047 14.8574 26.4572C14.859 29.8453 12.0829 32.6201 8.70122 32.6107Z" fill="url(#paint0_linear_16_41)"/>
<defs>
<linearGradient id="paint0_linear_16_41" x1="41.3138" y1="34.8248" x2="41.3138" y2="0.50616" gradientUnits="userSpaceOnUse">
<stop stop-color="#FD0C92"/>
<stop offset="1" stop-color="#FFAA92"/>
</linearGradient>
</defs>
</svg>
