<svg width="38" height="34" viewBox="0 0 38 34" fill="none" xmlns="http://www.w3.org/2000/svg">
<path fill-rule="evenodd" clip-rule="evenodd" d="M26.044 22.1416C26.5175 22.6886 26.6796 23.4337 26.4777 24.135C26.2772 24.8313 25.7483 25.3721 25.0632 25.5814C21.6753 26.6161 18.2821 27.6364 15.0005 28.6231C14.0976 28.894 13.332 28.4807 13.0024 27.5435C12.6794 26.6254 13.0107 25.8676 13.8886 25.5164C15.126 25.0213 16.3654 24.5314 17.6047 24.0414C18.3461 23.7483 19.0876 23.4552 19.8285 23.1609C20.0031 23.0915 20.1754 23.0162 20.3847 22.9249C20.4909 22.8787 20.6065 22.828 20.7373 22.7718L21.1001 22.6159L19.9476 21.7212C19.3363 21.2461 18.7585 20.7972 18.1785 20.3512C17.8942 20.1328 17.6061 19.9188 17.3182 19.7049C16.7768 19.3027 16.2169 18.887 15.6965 18.4477C15.0101 17.8684 14.6107 17.1054 14.5717 16.2989C14.5362 15.5604 14.8182 14.8448 15.3659 14.284C16.3249 13.3019 17.3112 12.3135 18.2649 11.3577C19.1158 10.505 19.9958 9.62327 20.8539 8.74839C20.964 8.63632 21.0318 8.58108 21.1003 8.58108C21.1655 8.58108 21.2312 8.63074 21.3348 8.72849C21.915 9.27721 22.5566 9.8494 23.2961 10.4776C24.2147 11.258 25.4299 11.5146 26.5465 11.1637C27.6431 10.8192 28.4763 9.93599 28.7756 8.8012C28.8535 8.5058 28.8695 8.19995 28.8849 7.90413C28.8852 7.89983 28.8854 7.89568 28.8855 7.89139C29.2145 8.1397 29.4473 8.46057 29.5546 8.81966C29.6901 9.27392 29.6242 9.76367 29.3637 10.2358C29.0362 10.8296 28.5981 11.3477 28.1304 11.6948C26.7615 12.7106 25.3419 13.7085 23.9691 14.6737C23.3223 15.1282 22.6757 15.5828 22.0317 16.0407C21.8827 16.1467 21.7537 16.2717 21.6173 16.4043C21.5529 16.4667 21.4855 16.5322 21.4118 16.5996L21.2427 16.7543L22.1151 17.7411C22.6537 18.3508 23.1836 18.9508 23.7169 19.5483C24.0089 19.8755 24.304 20.2002 24.5988 20.525C25.0771 21.0515 25.5714 21.5961 26.044 22.1416ZM12.2606 9.61355C12.8579 10.0728 13.547 9.97178 14.1039 9.34305C14.5288 8.86317 14.9576 8.38644 15.3861 7.90957C16.1621 7.04642 16.9644 6.15392 17.7298 5.25771C17.9548 4.99437 18.1613 4.86399 18.3798 4.84767C18.6604 4.82692 18.9084 5.00324 19.1322 5.19746C20.3088 6.21776 21.5227 7.23619 22.697 8.22114C23.0916 8.55218 23.4862 8.88321 23.8802 9.21482C24.4244 9.67294 24.9469 9.87632 25.5225 9.85714L25.5322 9.85699C25.5398 9.85714 25.5475 9.85714 25.5553 9.85714C26.5056 9.85714 27.1735 9.45254 27.4376 8.7159C27.7795 7.76201 27.4953 6.83775 26.6775 6.24352C24.2965 4.5132 21.8406 2.74883 19.1694 0.849063C18.8159 0.597745 18.4528 0.474091 18.1045 0.474091C17.5927 0.474091 17.1124 0.740722 16.74 1.26139C15.1285 3.51351 13.5616 5.74145 12.1085 7.81339C11.6355 8.48791 11.6939 9.17775 12.2606 9.61355ZM32.7382 8.17406C34.9887 8.17507 36.7524 6.41742 36.7644 4.16171C36.7764 1.90315 35.0282 0.137341 32.7709 0.128181C30.4983 0.118878 28.7405 1.84518 28.7247 4.10218C28.7085 6.39638 30.4597 8.17306 32.7382 8.17406ZM36.7974 15.2708C36.3824 15.2075 35.9645 15.1812 35.6107 15.1636C35.0409 15.1355 34.4709 15.1096 33.901 15.0839C32.6699 15.0279 31.397 14.9702 30.1454 14.8898C29.8249 14.8693 29.4895 14.6045 29.3134 14.3674C29.0972 14.0759 28.9219 13.76 28.736 13.4258C28.6965 13.3544 28.6559 13.2818 28.6144 13.2081L25.5737 15.2698C25.7065 15.4635 25.8355 15.654 25.9627 15.8418C26.3411 16.4004 26.6986 16.9278 27.0805 17.4373C27.4683 17.9545 28.0241 18.1764 28.7795 18.1145C29.7501 18.0355 30.7183 17.9802 31.7927 17.921C32.446 17.8853 33.0994 17.8526 33.7529 17.82C34.706 17.7723 35.6917 17.7233 36.6596 17.6641C37.2474 17.6282 37.6491 17.2047 37.6835 16.5853C37.7224 15.8859 37.3662 15.3576 36.7974 15.2708ZM15.7183 21.2129C15.8848 21.0569 16.0524 20.8998 16.2219 20.7416C16.023 20.5848 15.8183 20.4314 15.6185 20.2817C14.7241 19.6116 13.7994 18.9186 13.3396 17.8711L13.32 17.8143C13.1773 17.3908 13.1069 17.0576 13.0803 16.7963L12.4334 17.506C11.8609 18.1633 11.1759 18.9451 10.4635 19.7289C7.21482 23.3016 3.97059 26.858 0.833123 30.297C0.190804 31.0014 0.16447 31.8586 0.76643 32.4809C1.44596 33.184 2.47928 33.2483 3.17012 32.6307C4.09138 31.8072 5.02022 30.9604 5.91858 30.1416C6.26508 29.8257 6.61142 29.51 6.95834 29.1945L9.14506 27.2108C10.8699 25.646 12.5954 24.081 14.3184 22.513C14.7853 22.0872 15.2385 21.6626 15.7183 21.2129Z" fill="white"/>
</svg>
