<svg width="42" height="25" viewBox="0 0 42 25" fill="none" xmlns="http://www.w3.org/2000/svg">
<path fill-rule="evenodd" clip-rule="evenodd" d="M1.27061 17.5563C1.28309 17.5481 1.29637 17.5408 1.3102 17.5351C3.21661 16.7544 5.11503 15.9531 7.03412 15.2048C7.68936 14.9493 8.40812 14.8329 9.10356 15.0725C9.90719 15.3494 10.7278 15.6122 11.4781 16.0021C13.5599 17.0841 15.5389 17.1119 17.5943 15.8548C20.1223 14.3085 22.6957 14.4251 25.2208 15.982C26.9602 17.0544 28.7694 17.1619 30.594 16.2017C31.8026 15.5655 33.0547 15.1226 34.4435 15.0688C34.9146 15.1393 35.3987 15.1631 35.8549 15.2881C37.9038 15.8496 39.7836 16.7906 41.578 17.9119C41.9466 18.1422 41.9497 18.4616 41.5384 18.6048C41.234 18.7108 40.8543 18.7248 40.5381 18.6512C39.0542 18.3057 37.5717 17.9477 36.1059 17.533C34.5923 17.1048 33.2237 17.3457 31.9109 18.1853C29.3937 19.7954 26.8216 19.8798 24.1863 18.4375C23.5644 18.0972 22.8883 17.8116 22.2023 17.6413C20.7763 17.2873 19.5034 17.7855 18.2756 18.4894C16.7568 19.3602 15.1266 19.6514 13.3885 19.3312C12.2769 19.1265 11.3393 18.5478 10.387 18.0032C9.19006 17.3186 7.96878 17.0326 6.60935 17.4948C5.81948 17.7634 4.99497 17.9323 4.18253 18.1317C3.34128 18.3381 2.50057 18.5528 1.64989 18.712C1.27549 18.7821 0.80023 18.7906 0.661807 18.3229C0.5284 17.8727 0.979599 17.7465 1.27061 17.5563ZM32.5889 13.3906C32.2772 12.9325 31.9808 12.4957 31.683 12.0597C30.4786 10.2965 29.3551 8.47308 27.8869 6.90487C26.2743 5.1823 24.3744 3.80301 22.4873 2.40874C21.6944 1.82298 20.9074 1.22922 20.1229 0.632343C19.1712 -0.0916363 18.3143 -0.147833 17.3107 0.504427C15.4822 1.69289 13.6616 2.89369 11.8469 4.10311C11.5777 4.28247 11.3198 4.50719 11.1236 4.76235C10.5392 5.52219 10.577 6.39903 11.1834 7.10905C11.7465 7.76829 12.7052 7.91112 13.6062 7.43524C14.7684 6.82142 15.9175 6.18279 17.0729 5.55615C17.2699 5.44932 17.4662 5.33936 17.6704 5.24805C18.1619 5.02828 18.6126 5.0558 19.0421 5.42939C19.9761 6.24156 20.9274 7.0338 21.9311 7.88461C18.5769 9.99852 15.3072 12.0592 12.0285 14.1254C13.1175 15.0803 14.7382 15.3782 16.0321 14.5551C17.046 13.9101 18.1153 13.385 19.2896 13.0961C19.3686 13.0767 19.4497 13.0626 19.5274 13.0398C20.0227 12.9353 20.4829 12.8863 20.8405 12.8641C22.7087 12.7496 24.4322 13.2467 26.0077 14.1919C27.5864 15.1391 29.1378 14.9987 30.7211 14.3034C31.335 14.034 31.9276 13.7157 32.5889 13.3906ZM41.0542 7.2866C41.0542 4.77023 39.0143 2.73035 36.498 2.73035C33.9816 2.73035 31.9417 4.77023 31.9417 7.2866C31.9417 9.80298 33.9816 11.8429 36.498 11.8429C39.0143 11.8429 41.0542 9.80298 41.0542 7.2866ZM0.757525 23.7337C0.751492 23.7434 0.756305 23.7613 0.756305 23.856C0.835414 23.8693 0.91337 23.8812 0.988887 23.8932V23.8944C1.0057 23.898 1.02488 23.9004 1.04522 23.9028C1.14358 23.9136 1.27421 23.9112 1.41331 23.9004C1.64948 23.8813 1.91332 23.8393 2.09912 23.8069C2.13153 23.8081 2.16386 23.8045 2.19382 23.7973C2.23701 23.7866 2.27897 23.7758 2.32215 23.7649C2.33415 23.7626 2.34011 23.7613 2.34011 23.7613C3.93002 23.3657 5.51152 22.9364 7.10258 22.5504C8.34114 22.2506 9.42867 22.7026 10.4526 23.3453C11.9922 24.3117 13.6444 24.9053 15.4705 24.5863C16.3674 24.4293 17.2499 24.0887 18.0868 23.7146C18.9033 23.3489 19.6707 22.8861 20.5855 22.7758C21.6347 22.6487 22.6167 22.8597 23.528 23.3573C24.6503 23.97 25.7881 24.5071 27.0854 24.6306C28.5674 24.7721 29.9331 24.4268 31.2232 23.7242C31.7832 23.4196 32.3215 23.066 32.903 22.8153C34.0361 22.3286 35.1847 22.5192 36.3298 22.8309C37.6271 23.1834 38.9281 23.5252 40.235 23.8381C40.5731 23.9197 40.9472 23.9221 41.2914 23.8705C41.4532 23.8454 41.6211 23.626 41.7039 23.4545C41.7326 23.3945 41.5372 23.1799 41.4053 23.0959C39.825 22.0851 38.1416 21.2842 36.3718 20.6691C34.4582 20.0036 32.6237 20.3082 30.8671 21.2159C29.7988 21.7674 28.7065 22.1607 27.4787 22.0336C26.5663 21.9389 25.7497 21.5912 24.9752 21.1223C23.2498 20.0792 21.4021 19.6332 19.4382 20.2291C18.5341 20.5036 17.678 20.9617 16.8375 21.4053C15.1984 22.2686 13.5773 22.2182 11.9239 21.47C11.081 21.0887 10.2153 20.7578 9.36163 20.4029C8.63623 20.1008 7.8772 20.0852 7.16624 20.3417C5.53796 20.9305 3.95165 21.633 2.31863 22.2015C1.51411 22.482 1.15321 23.0983 0.757525 23.7337Z" fill="url(#paint0_linear_16_63)"/>
<defs>
<linearGradient id="paint0_linear_16_63" x1="41.8508" y1="24.6728" x2="41.8508" y2="0.0499408" gradientUnits="userSpaceOnUse">
<stop stop-color="#FD0C89"/>
<stop offset="1" stop-color="#FFAA92"/>
</linearGradient>
</defs>
</svg>
