<svg width="36" height="28" viewBox="0 0 36 28" fill="none" xmlns="http://www.w3.org/2000/svg">
<path fill-rule="evenodd" clip-rule="evenodd" d="M8.29689 16.6157C6.40549 13.3391 5.59689 9.12035 6.74299 4.83129C6.89064 4.26879 7.47424 3.93832 8.03674 4.08598C9.32346 4.43051 10.561 4.94379 11.7141 5.59769C10.8774 7.7141 10.4555 9.95004 10.4555 12.2422C10.4555 16.7704 12.1078 20.075 13.1766 21.7977C11.0883 20.4196 9.44299 18.6055 8.29689 16.6157ZM7.24218 22.4024C8.99296 23.4149 11.032 24.0969 13.2047 24.2938C9.44999 22.2126 7.41796 19.3298 6.46171 17.6774C5.41405 15.8563 4.70389 13.8876 4.3453 11.8134C3.29764 11.8555 2.24999 12.0173 1.23749 12.2844C0.773425 12.3969 0.428894 12.8118 0.428894 13.311C0.428894 13.4024 0.442957 13.4938 0.46405 13.5852C1.54686 17.593 4.17655 20.6305 7.24218 22.4024ZM22.7883 24.2938C24.9609 24.0969 27 23.4149 28.7508 22.4024C31.8164 20.6305 34.4461 17.593 35.5219 13.5781C35.543 13.4867 35.557 13.3953 35.557 13.3039C35.557 12.8047 35.2125 12.3899 34.7484 12.2774C33.7289 12.0102 32.6883 11.8485 31.6406 11.8063C31.289 13.8805 30.5789 15.8492 29.5242 17.6703C28.575 19.3297 26.55 22.2125 22.7883 24.2938ZM22.8305 21.8047C24.9118 20.4266 26.5571 18.6055 27.7032 16.6227C29.5946 13.3461 30.4032 9.12737 29.2571 4.83831C29.1094 4.27581 28.5258 3.94534 27.9633 4.093C26.6766 4.43753 25.4391 4.95081 24.286 5.60471C25.1227 7.72112 25.5446 9.95706 25.5446 12.2492C25.5516 16.7774 23.8922 20.0821 22.8305 21.8047ZM35.6906 22.093C35.1844 21.5868 34.643 21.1227 34.0664 20.7149C32.85 22.1212 31.4227 23.3024 29.8055 24.2305C27.3094 25.6719 24.4688 26.4454 21.5859 26.4594C23.1187 27.0782 24.7641 27.4016 26.4656 27.4016C29.9461 27.4016 33.2227 26.0446 35.6836 23.5837C35.8805 23.3868 35.993 23.1196 35.993 22.8383C36 22.5571 35.8875 22.2899 35.6906 22.093ZM1.92657 20.7079C1.35704 21.1227 0.815637 21.5798 0.302356 22.086C0.105481 22.2829 -0.00701904 22.5501 -0.00701904 22.8313C-0.00701904 23.1126 0.105481 23.3798 0.302356 23.5766C2.76329 26.0376 6.03986 27.3946 9.52033 27.3946C11.2219 27.3946 12.8672 27.0712 14.4 26.4524C11.5172 26.4313 8.67658 25.6649 6.18048 24.2235C4.57736 23.3024 3.15001 22.1141 1.92657 20.7079ZM18.7453 0.907855C18.5484 0.71098 18.2812 0.59848 18 0.59848C17.7187 0.59848 17.4515 0.71098 17.2547 0.907855C14.4914 3.67114 12.5578 7.65786 12.5578 12.2422C12.5578 16.8336 14.4914 20.8204 17.2547 23.5766C17.4515 23.7735 17.7187 23.886 18 23.886C18.2812 23.886 18.5484 23.7735 18.7453 23.5766C21.5016 20.8204 23.4422 16.8266 23.4422 12.2422C23.4422 7.65786 21.5086 3.67114 18.7453 0.907855Z" fill="url(#paint0_linear_16_89)"/>
<defs>
<linearGradient id="paint0_linear_16_89" x1="35.9933" y1="27.4014" x2="35.9933" y2="0.598429" gradientUnits="userSpaceOnUse">
<stop stop-color="#FD0C92"/>
<stop offset="1" stop-color="#FFAA92"/>
</linearGradient>
</defs>
</svg>
